<svg width="1280" height="720" xmlns="http://www.w3.org/2000/svg" xmlns:xlink="http://www.w3.org/1999/xlink" overflow="hidden"><defs><filter id="fx0" x="-10%" y="-10%" width="120%" height="120%" filterUnits="userSpaceOnUse" primitiveUnits="userSpaceOnUse"><feComponentTransfer color-interpolation-filters="sRGB"><feFuncR type="discrete" tableValues="0.74902 0.74902"/><feFuncG type="discrete" tableValues="0.74902 0.74902"/><feFuncB type="discrete" tableValues="0.74902 0.74902"/><feFuncA type="linear" slope="0.4" intercept="0"/></feComponentTransfer><feGaussianBlur stdDeviation="6.66667 6.66667"/></filter><filter id="fx1" x="-10%" y="-10%" width="120%" height="120%" filterUnits="userSpaceOnUse" primitiveUnits="userSpaceOnUse"><feComponentTransfer color-interpolation-filters="sRGB"><feFuncR type="discrete" tableValues="1 1"/><feFuncG type="discrete" tableValues="1 1"/><feFuncB type="discrete" tableValues="1 1"/><feFuncA type="linear" slope="0.4" intercept="0"/></feComponentTransfer><feGaussianBlur stdDeviation="6.66667 6.66667"/></filter><filter id="fx2" x="-10%" y="-10%" width="120%" height="120%" filterUnits="userSpaceOnUse" primitiveUnits="userSpaceOnUse"><feComponentTransfer color-interpolation-filters="sRGB"><feFuncR type="discrete" tableValues="1 1"/><feFuncG type="discrete" tableValues="1 1"/><feFuncB type="discrete" tableValues="1 1"/><feFuncA type="linear" slope="0.4" intercept="0"/></feComponentTransfer><feGaussianBlur stdDeviation="6.66667 6.66667"/></filter><filter id="fx3" x="-10%" y="-10%" width="120%" height="120%" filterUnits="userSpaceOnUse" primitiveUnits="userSpaceOnUse"><feComponentTransfer color-interpolation-filters="sRGB"><feFuncR type="discrete" tableValues="0.74902 0.74902"/><feFuncG type="discrete" tableValues="0.74902 0.74902"/><feFuncB type="discrete" tableValues="0.74902 0.74902"/><feFuncA type="linear" slope="0.4" intercept="0"/></feComponentTransfer><feGaussianBlur stdDeviation="6.66667 6.66667"/></filter><filter id="fx4" x="-10%" y="-10%" width="120%" height="120%" filterUnits="userSpaceOnUse" primitiveUnits="userSpaceOnUse"><feComponentTransfer color-interpolation-filters="sRGB"><feFuncR type="discrete" tableValues="1 1"/><feFuncG type="discrete" tableValues="1 1"/><feFuncB type="discrete" tableValues="1 1"/><feFuncA type="linear" slope="0.4" intercept="0"/></feComponentTransfer><feGaussianBlur stdDeviation="6.66667 6.66667"/></filter><filter id="fx5" x="-10%" y="-10%" width="120%" height="120%" filterUnits="userSpaceOnUse" primitiveUnits="userSpaceOnUse"><feComponentTransfer color-interpolation-filters="sRGB"><feFuncR type="discrete" tableValues="0.74902 0.74902"/><feFuncG type="discrete" tableValues="0.74902 0.74902"/><feFuncB type="discrete" tableValues="0.74902 0.74902"/><feFuncA type="linear" slope="0.4" intercept="0"/></feComponentTransfer><feGaussianBlur stdDeviation="6.66667 6.66667"/></filter><filter id="fx6" x="-10%" y="-10%" width="120%" height="120%" filterUnits="userSpaceOnUse" primitiveUnits="userSpaceOnUse"><feComponentTransfer color-interpolation-filters="sRGB"><feFuncR type="discrete" tableValues="1 1"/><feFuncG type="discrete" tableValues="1 1"/><feFuncB type="discrete" tableValues="1 1"/><feFuncA type="linear" slope="0.4" intercept="0"/></feComponentTransfer><feGaussianBlur stdDeviation="6.66667 6.66667"/></filter><filter id="fx7" x="-10%" y="-10%" width="120%" height="120%" filterUnits="userSpaceOnUse" primitiveUnits="userSpaceOnUse"><feComponentTransfer color-interpolation-filters="sRGB"><feFuncR type="discrete" tableValues="0.74902 0.74902"/><feFuncG type="discrete" tableValues="0.74902 0.74902"/><feFuncB type="discrete" tableValues="0.74902 0.74902"/><feFuncA type="linear" slope="0.4" intercept="0"/></feComponentTransfer><feGaussianBlur stdDeviation="6.66667 6.66667"/></filter><filter id="fx8" x="-10%" y="-10%" width="120%" height="120%" filterUnits="userSpaceOnUse" primitiveUnits="userSpaceOnUse"><feComponentTransfer color-interpolation-filters="sRGB"><feFuncR type="discrete" tableValues="1 1"/><feFuncG type="discrete" tableValues="1 1"/><feFuncB type="discrete" tableValues="1 1"/><feFuncA type="linear" slope="0.4" intercept="0"/></feComponentTransfer><feGaussianBlur stdDeviation="6.66667 6.66667"/></filter><filter id="fx9" x="-10%" y="-10%" width="120%" height="120%" filterUnits="userSpaceOnUse" primitiveUnits="userSpaceOnUse"><feComponentTransfer color-interpolation-filters="sRGB"><feFuncR type="discrete" tableValues="0.74902 0.74902"/><feFuncG type="discrete" tableValues="0.74902 0.74902"/><feFuncB type="discrete" tableValues="0.74902 0.74902"/><feFuncA type="linear" slope="0.4" intercept="0"/></feComponentTransfer><feGaussianBlur stdDeviation="6.66667 6.66667"/></filter><filter id="fx10" x="-10%" y="-10%" width="120%" height="120%" filterUnits="userSpaceOnUse" primitiveUnits="userSpaceOnUse"><feComponentTransfer color-interpolation-filters="sRGB"><feFuncR type="discrete" tableValues="1 1"/><feFuncG type="discrete" tableValues="1 1"/><feFuncB type="discrete" tableValues="1 1"/><feFuncA type="linear" slope="0.4" intercept="0"/></feComponentTransfer><feGaussianBlur stdDeviation="6.66667 6.66667"/></filter><filter id="fx11" x="-10%" y="-10%" width="120%" height="120%" filterUnits="userSpaceOnUse" primitiveUnits="userSpaceOnUse"><feComponentTransfer color-interpolation-filters="sRGB"><feFuncR type="discrete" tableValues="0.74902 0.74902"/><feFuncG type="discrete" tableValues="0.74902 0.74902"/><feFuncB type="discrete" tableValues="0.74902 0.74902"/><feFuncA type="linear" slope="0.4" intercept="0"/></feComponentTransfer><feGaussianBlur stdDeviation="6.66667 6.66667"/></filter><filter id="fx12" x="-10%" y="-10%" width="120%" height="120%" filterUnits="userSpaceOnUse" primitiveUnits="userSpaceOnUse"><feComponentTransfer color-interpolation-filters="sRGB"><feFuncR type="discrete" tableValues="0.74902 0.74902"/><feFuncG type="discrete" tableValues="0.74902 0.74902"/><feFuncB type="discrete" tableValues="0.74902 0.74902"/><feFuncA type="linear" slope="0.4" intercept="0"/></feComponentTransfer><feGaussianBlur stdDeviation="6.66667 6.66667"/></filter><filter id="fx13" x="-10%" y="-10%" width="120%" height="120%" filterUnits="userSpaceOnUse" primitiveUnits="userSpaceOnUse"><feComponentTransfer color-interpolation-filters="sRGB"><feFuncR type="discrete" tableValues="0.74902 0.74902"/><feFuncG type="discrete" tableValues="0.74902 0.74902"/><feFuncB type="discrete" tableValues="0.74902 0.74902"/><feFuncA type="linear" slope="0.4" intercept="0"/></feComponentTransfer><feGaussianBlur stdDeviation="6.66667 6.66667"/></filter><clipPath id="clip14"><rect x="0" y="0" width="1280" height="720"/></clipPath><clipPath id="clip15"><rect x="-3" y="-3" width="1266" height="174"/></clipPath><clipPath id="clip16"><rect x="0" y="0" width="1258" height="167"/></clipPath><linearGradient x1="627.285" y1="73.8071" x2="652.715" y2="321.193" gradientUnits="userSpaceOnUse" spreadMethod="reflect" id="fill17"><stop offset="0" stop-color="#48CAE4"/><stop offset="0.5" stop-color="#90E0EF"/><stop offset="1" stop-color="#ADE8F4"/></linearGradient><clipPath id="clip18"><rect x="-3" y="-3" width="1263" height="174"/></clipPath><clipPath id="clip19"><rect x="0" y="0" width="1258" height="167"/></clipPath><linearGradient x1="627.285" y1="73.8071" x2="652.715" y2="321.193" gradientUnits="userSpaceOnUse" spreadMethod="reflect" id="fill20"><stop offset="0" stop-color="#48CAE4"/><stop offset="0.5" stop-color="#90E0EF"/><stop offset="1" stop-color="#ADE8F4"/></linearGradient><clipPath id="clip21"><rect x="-3" y="-3" width="543" height="214"/></clipPath><clipPath id="clip22"><rect x="0" y="0" width="536" height="208"/></clipPath><clipPath id="clip23"><rect x="-3" y="-3" width="543" height="214"/></clipPath><clipPath id="clip24"><rect x="0" y="0" width="536" height="208"/></clipPath><clipPath id="clip25"><rect x="-3" y="-3" width="543" height="214"/></clipPath><clipPath id="clip26"><rect x="0" y="0" width="536" height="208"/></clipPath><clipPath id="clip27"><rect x="-3" y="-3" width="543" height="214"/></clipPath><clipPath id="clip28"><rect x="0" y="0" width="536" height="208"/></clipPath><clipPath id="clip29"><rect x="-3" y="-3" width="543" height="214"/></clipPath><clipPath id="clip30"><rect x="0" y="0" width="536" height="208"/></clipPath><clipPath id="clip31"><rect x="-3" y="-3" width="543" height="214"/></clipPath><clipPath id="clip32"><rect x="0" y="0" width="536" height="208"/></clipPath><clipPath id="clip33"><rect x="-3" y="-3" width="543" height="214"/></clipPath><clipPath id="clip34"><rect x="0" y="0" width="536" height="208"/></clipPath><clipPath id="clip35"><rect x="-3" y="-3" width="543" height="214"/></clipPath><clipPath id="clip36"><rect x="0" y="0" width="536" height="208"/></clipPath><clipPath id="clip37"><rect x="-3" y="-3" width="858" height="105"/></clipPath><clipPath id="clip38"><rect x="0" y="0" width="852" height="99"/></clipPath><clipPath id="clip39"><rect x="-3" y="-3" width="858" height="105"/></clipPath><clipPath id="clip40"><rect x="0" y="0" width="852" height="99"/></clipPath><clipPath id="clip41"><rect x="-3" y="-3" width="152" height="105"/></clipPath><clipPath id="clip42"><rect x="0" y="0" width="144" height="99"/></clipPath><clipPath id="clip43"><rect x="-3" y="-3" width="152" height="105"/></clipPath><clipPath id="clip44"><rect x="0" y="0" width="147" height="99"/></clipPath></defs><g clip-path="url(#clip14)"><rect x="0" y="0" width="1280" height="720" fill="#FFFFFF"/><path d="M65 84.8703C65 58.9845 85.9845 38 111.87 38L1168.13 38C1194.02 38 1215 58.9845 1215 84.8703L1215 635.13C1215 661.016 1194.02 682 1168.13 682L111.87 682C85.9845 682 65 661.016 65 635.13Z" fill="#EDF2F4" fill-rule="evenodd"/><g clip-path="url(#clip15)" filter="url(#fx0)" transform="translate(25 128)"><g clip-path="url(#clip16)"><path d="M21.1421 41.9755C21.1421 30.4695 30.4695 21.1421 41.9753 21.1421L1216.31 21.1421C1227.81 21.1421 1237.14 30.4695 1237.14 41.9755L1237.14 125.309C1237.14 136.815 1227.81 146.142 1216.31 146.142L41.9753 146.142C30.4695 146.142 21.1421 136.815 21.1421 125.309Z" fill="#FF0000" fill-rule="evenodd"/></g></g><path d="M32 155.833C32 144.327 41.3273 135 52.8332 135L1227.17 135C1238.67 135 1248 144.327 1248 155.833L1248 239.167C1248 250.673 1238.67 260 1227.17 260L52.8332 260C41.3273 260 32 250.673 32 239.167Z" fill="url(#fill17)" fill-rule="evenodd"/><g clip-path="url(#clip18)" filter="url(#fx1)" transform="translate(-3 100)"><g clip-path="url(#clip19)"><path d="M20.8579 41.6912C20.8579 30.1853 30.1852 20.8579 41.691 20.8579L1216.02 20.8579C1227.53 20.8579 1236.86 30.1853 1236.86 41.6912L1236.86 125.025C1236.86 136.53 1227.53 145.858 1216.02 145.858L41.691 145.858C30.1852 145.858 20.8579 136.53 20.8579 125.025Z" fill="#FF0000" fill-rule="evenodd"/></g></g><path d="M32 155.833C32 144.327 41.3273 135 52.8332 135L1227.17 135C1238.67 135 1248 144.327 1248 155.833L1248 239.167C1248 250.673 1238.67 260 1227.17 260L52.8332 260C41.3273 260 32 250.673 32 239.167Z" fill="url(#fill20)" fill-rule="evenodd"/><g clip-path="url(#clip21)" filter="url(#fx2)" transform="translate(116 290)"><g clip-path="url(#clip22)"><path d="M21.1421 48.8092C21.1421 33.5291 33.5291 21.1422 48.8092 21.1422L487.475 21.1422C502.755 21.1422 515.142 33.5291 515.142 48.8092L515.142 159.475C515.142 174.755 502.755 187.142 487.475 187.142L48.8092 187.142C33.5291 187.142 21.1421 174.755 21.1421 159.475Z" fill="#F2F2F2" fill-rule="evenodd"/></g></g><path d="M123 324.667C123 309.387 135.387 297 150.667 297L589.333 297C604.613 297 617 309.387 617 324.667L617 435.333C617 450.613 604.613 463 589.333 463L150.667 463C135.387 463 123 450.613 123 435.333Z" fill="#F2F2F2" fill-rule="evenodd"/><g clip-path="url(#clip23)" filter="url(#fx3)" transform="translate(116 290)"><g clip-path="url(#clip24)"><path d="M21.1421 48.8092C21.1421 33.5291 33.5291 21.1422 48.8092 21.1422L487.475 21.1422C502.755 21.1422 515.142 33.5291 515.142 48.8092L515.142 159.475C515.142 174.755 502.755 187.142 487.475 187.142L48.8092 187.142C33.5291 187.142 21.1421 174.755 21.1421 159.475Z" fill="#F2F2F2" fill-rule="evenodd"/></g></g><path d="M123 324.667C123 309.387 135.387 297 150.667 297L589.333 297C604.613 297 617 309.387 617 324.667L617 435.333C617 450.613 604.613 463 589.333 463L150.667 463C135.387 463 123 450.613 123 435.333Z" fill="#F2F2F2" fill-rule="evenodd"/><g clip-path="url(#clip25)" filter="url(#fx4)" transform="translate(656 290)"><g clip-path="url(#clip26)"><path d="M21.1422 48.8092C21.1422 33.5291 33.5291 21.1422 48.8092 21.1422L487.475 21.1422C502.755 21.1422 515.142 33.5291 515.142 48.8092L515.142 159.475C515.142 174.755 502.755 187.142 487.475 187.142L48.8092 187.142C33.5291 187.142 21.1422 174.755 21.1422 159.475Z" fill="#F2F2F2" fill-rule="evenodd"/></g></g><path d="M663 324.667C663 309.387 675.387 297 690.667 297L1129.33 297C1144.61 297 1157 309.387 1157 324.667L1157 435.333C1157 450.613 1144.61 463 1129.33 463L690.667 463C675.387 463 663 450.613 663 435.333Z" fill="#F2F2F2" fill-rule="evenodd"/><g clip-path="url(#clip27)" filter="url(#fx5)" transform="translate(656 290)"><g clip-path="url(#clip28)"><path d="M21.1422 48.8092C21.1422 33.5291 33.5291 21.1422 48.8092 21.1422L487.475 21.1422C502.755 21.1422 515.142 33.5291 515.142 48.8092L515.142 159.475C515.142 174.755 502.755 187.142 487.475 187.142L48.8092 187.142C33.5291 187.142 21.1422 174.755 21.1422 159.475Z" fill="#F2F2F2" fill-rule="evenodd"/></g></g><path d="M663 324.667C663 309.387 675.387 297 690.667 297L1129.33 297C1144.61 297 1157 309.387 1157 324.667L1157 435.333C1157 450.613 1144.61 463 1129.33 463L690.667 463C675.387 463 663 450.613 663 435.333Z" fill="#F2F2F2" fill-rule="evenodd"/><g clip-path="url(#clip29)" filter="url(#fx6)" transform="translate(116 481)"><g clip-path="url(#clip30)"><path d="M21.1421 48.8092C21.1421 33.5291 33.5291 21.1422 48.8092 21.1422L487.475 21.1422C502.755 21.1422 515.142 33.5291 515.142 48.8092L515.142 159.475C515.142 174.755 502.755 187.142 487.475 187.142L48.8092 187.142C33.5291 187.142 21.1421 174.755 21.1421 159.475Z" fill="#F2F2F2" fill-rule="evenodd"/></g></g><path d="M123 515.667C123 500.387 135.387 488 150.667 488L589.333 488C604.613 488 617 500.387 617 515.667L617 626.333C617 641.613 604.613 654 589.333 654L150.667 654C135.387 654 123 641.613 123 626.333Z" fill="#F2F2F2" fill-rule="evenodd"/><g clip-path="url(#clip31)" filter="url(#fx7)" transform="translate(116 481)"><g clip-path="url(#clip32)"><path d="M21.1421 48.8092C21.1421 33.5291 33.5291 21.1422 48.8092 21.1422L487.475 21.1422C502.755 21.1422 515.142 33.5291 515.142 48.8092L515.142 159.475C515.142 174.755 502.755 187.142 487.475 187.142L48.8092 187.142C33.5291 187.142 21.1421 174.755 21.1421 159.475Z" fill="#F2F2F2" fill-rule="evenodd"/></g></g><path d="M123 515.667C123 500.387 135.387 488 150.667 488L589.333 488C604.613 488 617 500.387 617 515.667L617 626.333C617 641.613 604.613 654 589.333 654L150.667 654C135.387 654 123 641.613 123 626.333Z" fill="#F2F2F2" fill-rule="evenodd"/><g clip-path="url(#clip33)" filter="url(#fx8)" transform="translate(656 481)"><g clip-path="url(#clip34)"><path d="M21.1422 48.8092C21.1422 33.5291 33.5291 21.1422 48.8092 21.1422L487.475 21.1422C502.755 21.1422 515.142 33.5291 515.142 48.8092L515.142 159.475C515.142 174.755 502.755 187.142 487.475 187.142L48.8092 187.142C33.5291 187.142 21.1422 174.755 21.1422 159.475Z" fill="#F2F2F2" fill-rule="evenodd"/></g></g><path d="M663 515.667C663 500.387 675.387 488 690.667 488L1129.33 488C1144.61 488 1157 500.387 1157 515.667L1157 626.333C1157 641.613 1144.61 654 1129.33 654L690.667 654C675.387 654 663 641.613 663 626.333Z" fill="#F2F2F2" fill-rule="evenodd"/><g clip-path="url(#clip35)" filter="url(#fx9)" transform="translate(656 481)"><g clip-path="url(#clip36)"><path d="M21.1422 48.8092C21.1422 33.5291 33.5291 21.1422 48.8092 21.1422L487.475 21.1422C502.755 21.1422 515.142 33.5291 515.142 48.8092L515.142 159.475C515.142 174.755 502.755 187.142 487.475 187.142L48.8092 187.142C33.5291 187.142 21.1422 174.755 21.1422 159.475Z" fill="#F2F2F2" fill-rule="evenodd"/></g></g><path d="M663 515.667C663 500.387 675.387 488 690.667 488L1129.33 488C1144.61 488 1157 500.387 1157 515.667L1157 626.333C1157 641.613 1144.61 654 1129.33 654L690.667 654C675.387 654 663 641.613 663 626.333Z" fill="#F2F2F2" fill-rule="evenodd"/><g clip-path="url(#clip37)" filter="url(#fx10)" transform="translate(116 53)"><g clip-path="url(#clip38)"><path d="M21.1421 30.6427C21.1421 25.3957 25.3957 21.1421 30.6426 21.1421L821.642 21.1421C826.889 21.1421 831.142 25.3957 831.142 30.6427L831.142 68.6415C831.142 73.8886 826.889 78.1421 821.642 78.1421L30.6426 78.1421C25.3957 78.1421 21.1421 73.8886 21.1421 68.6415Z" fill="#F2F2F2" fill-rule="evenodd"/></g></g><path d="M123 69.5006C123 64.2536 127.254 60 132.5 60L923.5 60C928.746 60 933 64.2536 933 69.5006L933 107.499C933 112.746 928.746 117 923.5 117L132.5 117C127.254 117 123 112.746 123 107.499Z" fill="#F2F2F2" fill-rule="evenodd"/><g clip-path="url(#clip39)" filter="url(#fx11)" transform="translate(116 53)"><g clip-path="url(#clip40)"><path d="M21.1421 30.6427C21.1421 25.3957 25.3957 21.1421 30.6426 21.1421L821.642 21.1421C826.889 21.1421 831.142 25.3957 831.142 30.6427L831.142 68.6415C831.142 73.8886 826.889 78.1421 821.642 78.1421L30.6426 78.1421C25.3957 78.1421 21.1421 73.8886 21.1421 68.6415Z" fill="#F2F2F2" fill-rule="evenodd"/></g></g><path d="M123 69.5006C123 64.2536 127.254 60 132.5 60L923.5 60C928.746 60 933 64.2536 933 69.5006L933 107.499C933 112.746 928.746 117 923.5 117L132.5 117C127.254 117 123 112.746 123 107.499Z" fill="#F2F2F2" fill-rule="evenodd"/><g clip-path="url(#clip41)" filter="url(#fx12)" transform="translate(938 51)"><g clip-path="url(#clip42)"><path d="M21.1422 30.6423C21.1422 25.3955 25.3955 21.1421 30.6423 21.1421L113.642 21.1421C118.889 21.1421 123.142 25.3955 123.142 30.6423L123.142 68.642C123.142 73.8888 118.889 78.1421 113.642 78.1421L30.6423 78.1421C25.3955 78.1421 21.1422 73.8888 21.1422 68.642Z" fill="#F2F2F2" fill-rule="evenodd"/></g></g><path d="M945 67.5001C945 62.2534 949.253 58 954.5 58L1037.5 58C1042.75 58 1047 62.2534 1047 67.5001L1047 105.5C1047 110.747 1042.75 115 1037.5 115L954.5 115C949.253 115 945 110.747 945 105.5Z" fill="#F2F2F2" fill-rule="evenodd"/><g clip-path="url(#clip43)" filter="url(#fx13)" transform="translate(1053 53)"><g clip-path="url(#clip44)"><path d="M21.1421 30.6423C21.1421 25.3955 25.3955 21.1421 30.6423 21.1421L116.642 21.1421C121.889 21.1421 126.142 25.3955 126.142 30.6423L126.142 68.6419C126.142 73.8888 121.889 78.1421 116.642 78.1421L30.6423 78.1421C25.3955 78.1421 21.1421 73.8888 21.1421 68.6419Z" fill="#F2F2F2" fill-rule="evenodd"/></g></g><path d="M1060 69.5002C1060 64.2534 1064.25 60 1069.5 60L1155.5 60C1160.75 60 1165 64.2534 1165 69.5002L1165 107.5C1165 112.747 1160.75 117 1155.5 117L1069.5 117C1064.25 117 1060 112.747 1060 107.5Z" fill="#F2F2F2" fill-rule="evenodd"/></g></svg>